<svg xmlns="http://www.w3.org/2000/svg" viewBox="0 0 64 64"><circle cx="32" cy="32" r="32" fill="#E1E6E9"/><path fill="#FFF" d="m61.4 33.1-7.8-13.9c-.9-1.7-2.7-2.7-4.6-2.7H8.1C6 16.5 4.2 18 3.8 20L1 34.4v13.5c0 1.4 1.2 2.6 2.6 2.6h56.8c1.4 0 2.6-1.2 2.6-2.6v-8.7c0-2.2-.5-4.2-1.6-6.1z"/><path fill="#193651" d="M3.6 51.5c-2 0-3.6-1.6-3.6-3.6V34.2l2.9-14.3c.5-2.5 2.7-4.3 5.3-4.3h40.9c2.3 0 4.3 1.2 5.5 3.2l7.8 13.9c1.1 2 1.7 4.2 1.7 6.5v8.7c0 2-1.6 3.6-3.6 3.6H3.6zM2 34.5v13.4c0 .9.7 1.6 1.6 1.6h56.8c.9 0 1.6-.7 1.6-1.6v-8.7c0-1.9-.5-3.8-1.4-5.5l-7.8-13.9c-.8-1.3-2.2-2.2-3.7-2.2H8.2c-1.6 0-3 1.1-3.3 2.7L2 34.5z"/><path fill="#193651" d="M9.4 21.5h2v2h-2zM9.4 27.3h2v2h-2zM9.4 33.1h2v2h-2zM33.3 21.5h2v2h-2zM33.3 27.3h2v2h-2zM33.3 33.1h2v2h-2z"/><path fill="#F16050" d="M24.5 26.1v-4.4h-4.4v4.4h-4.4v4.4h4.4v4.4h4.4v-4.4H29v-4.4zM43.1 16.5h-8.9l1.7-9.4h5.6z"/><path fill="#193651" d="M34.2 17.5c-.3 0-.6-.1-.8-.4-.2-.2-.3-.5-.2-.8l1.7-9.4c.1-.5.5-.8 1-.8h5.6c.5 0 .9.3 1 .8l1.7 9.4c.1.3 0 .6-.2.8-.2.2-.5.4-.8.4h-9zm2.5-9.4-1.3 7.4H42l-1.3-7.4h-4z"/><circle cx="51.1" cy="50.5" r="6.4" fill="#FFF"/><path fill="#193651" d="M51.1 57.9c-4.1 0-7.4-3.3-7.4-7.4 0-4.1 3.3-7.4 7.4-7.4 4.1 0 7.4 3.3 7.4 7.4s-3.3 7.4-7.4 7.4zm0-12.8c-3 0-5.4 2.4-5.4 5.4 0 3 2.4 5.4 5.4 5.4 3 0 5.4-2.4 5.4-5.4 0-3-2.4-5.4-5.4-5.4z"/><circle cx="51.1" cy="50.5" r="2.9" fill="#E1E6E9"/><circle cx="12.1" cy="50.5" r="6.4" fill="#FFF"/><path fill="#193651" d="M12.1 57.9c-4.1 0-7.4-3.3-7.4-7.4 0-4.1 3.3-7.4 7.4-7.4 4.1 0 7.4 3.3 7.4 7.4s-3.3 7.4-7.4 7.4zm0-12.8c-3 0-5.4 2.4-5.4 5.4 0 3 2.4 5.4 5.4 5.4 3 0 5.4-2.4 5.4-5.4s-2.4-5.4-5.4-5.4z"/><path fill="#E1E6E9" d="M12.1 53.4c-1.6 0-2.9-1.3-2.9-2.9 0-1.6 1.3-2.9 2.9-2.9 1.6 0 2.9 1.3 2.9 2.9 0 1.6-1.3 2.9-2.9 2.9z"/><path fill="#2BA1DB" d="M61.3 35.2H44.6c-1.6 0-2.8-1.3-2.8-2.8v-8.2c0-1.6 1.3-2.8 2.8-2.8h9.1l6.9 12.3c.2.4.5 1 .7 1.5z"/><path fill="#F16050" d="M2 38.5h60v3.4H2z"/></svg>