<svg xmlns="http://www.w3.org/2000/svg" viewBox="0 0 64 64"><circle cx="32" cy="32" r="32" fill="#E1E6E9"/><path fill="#FFF" d="m58.1 34.6-5.4-8.9 1.1-.7c-2.1-4.3-5.9-10.4-8.7-14.3l-1.1.7-5.4-8.9 1.3-.8c2.3-1.3 5.2-.9 7 1.1C52.7 9.4 58.6 19 61.8 27.1c1 2.4 0 5.2-2.3 6.6l-1.4.9z"/><path fill="#183651" d="M58.1 35.6c-.3 0-.7-.2-.9-.5l-5.4-8.9c-.1-.2-.2-.5-.1-.8.1-.3.2-.5.5-.6l.3-.2c-2-3.9-5.1-9-7.7-12.6l-.4.2c-.5.3-1.1.1-1.4-.3L37.6 3c-.1-.2-.2-.5-.1-.8.1-.3.2-.5.5-.6l1.3-.8C42-.8 45.5-.3 47.5 2.1c5.9 6.7 11.8 16.4 15.1 24.6 1.2 2.9 0 6.2-2.7 7.8l-1.3.8c-.1.2-.3.3-.5.3zM54 26l4.4 7.2.5-.3c1.9-1.1 2.6-3.4 1.8-5.3-3.2-8.1-9-17.5-14.7-24-1.4-1.6-3.8-2-5.7-.9l-.5.3 4.4 7.2.3-.2c.4-.3 1-.1 1.3.3 2.9 3.9 6.7 10.1 8.8 14.4.2.5.1 1-.4 1.3H54z"/><path fill="#2BA1DB" d="M55.9 35.9c-1.2.7-2.7.3-3.4-.8l-2.9-4.7c-.7-1.1-.3-2.6.8-3.3l2.2-1.3 5.4 8.9-2.1 1.2z"/><path fill="#183651" d="m51.7 35.6-2.9-4.7c-1-1.6-.5-3.7 1.2-4.7l2.2-1.3c.5-.3 1.1-.1 1.4.3l5.4 8.9c.1.2.2.5.1.8-.1.3-.2.5-.5.6l-2.2 1.3c-1.6.9-3.7.4-4.7-1.2zm.6-8.5-1.3.8c-.7.4-.9 1.3-.5 1.9l2.9 4.7c.4.7 1.3.9 2 .5l1.3-.8-4.4-7.1z"/><path fill="#2BA1DB" d="M41.7 12.8c-1.2.7-2.7.3-3.4-.8l-2.9-4.7c-.7-1.1-.3-2.6.8-3.3l2.2-1.3 5.4 8.9-2.1 1.2z"/><path fill="#183651" d="m37.5 12.5-2.9-4.7c-1-1.6-.5-3.7 1.2-4.7L38 1.7c.5-.3 1.1-.1 1.4.3l5.4 8.9c.1.2.2.5.1.8-.1.3-.2.5-.5.6l-2.2 1.3c-1.6 1-3.7.5-4.7-1.1zm.7-8.6-1.4.8c-.7.4-.9 1.3-.5 1.9l2.9 4.7c.4.7 1.3.9 2 .5l1.3-.8-4.3-7.1z"/><path fill="#FFF" d="M21.3 10.8c-7.2 0-13 6.2-13 13.9 0 3.7 1.1 8 4.8 8h16.5c3.7 0 4.8-4.3 4.8-8-.1-7.6-5.9-13.9-13.1-13.9z"/><path fill="#183651" d="M29.5 33.7H13c-3.6 0-5.8-3.4-5.8-9 0-8.2 6.3-14.9 14-14.9s14 6.7 14 14.9c.1 5.7-2.1 9-5.7 9zm-8.2-21.9c-6.6 0-12 5.8-12 12.9 0 1.6.3 7 3.8 7h16.5c3.5 0 3.8-5.3 3.8-7-.1-7.1-5.5-12.9-12.1-12.9z"/><path fill="#4EBE9F" d="M21.3 37.7c11.2 0 20.3 9.1 20.3 20.3v5H1v-5.1c0-11.2 9.1-20.2 20.3-20.2z"/><path fill="#183651" d="M41.5 64H1c-.6 0-1-.4-1-1v-5.1c0-11.7 9.5-21.3 21.3-21.3 11.7 0 21.3 9.5 21.3 21.3V63c0 .4-.2.8-.6.9-.2.1-.3.1-.5.1zM2 62h38.6v-4.1c0-10.6-8.6-19.3-19.3-19.3S2 47.3 2 57.9V62z"/><path fill="#FFF" d="M5 59c0-11.2 8.1-17.3 16.3-17.3 8.2 0 16.3 6.2 16.3 17.3H5z"/><path fill="#FDBE5E" d="M30.9 27.3c0 5.7-4.3 10.3-9.6 10.3s-9.6-4.6-9.6-10.3c0-5.7 7.4-3.3 9.6-10.3 1.6-5.1 9.6 4.6 9.6 10.3z"/><path fill="#183651" d="M21.3 38.7c-5.9 0-10.6-5.1-10.6-11.3 0-3.5 2.4-4.6 4.5-5.5 2.1-1 4.2-2 5.2-5.1.5-1.5 1.6-2.3 3-2.1 3.5.5 8.6 8 8.6 12.7-.1 6.2-4.9 11.3-10.7 11.3zm1.5-22.2c-.2 0-.4.1-.6.7-1.3 4-4 5.3-6.3 6.3-2.2 1-3.3 1.6-3.3 3.7 0 5.2 3.9 9.3 8.6 9.3 4.8 0 8.6-4.2 8.6-9.3 0-4.2-4.7-10.4-6.9-10.8 0 .1 0 .1-.1.1z"/><path fill="#193651" d="M14.5 50.3h2v2h-2zm5.8 0h2v2h-2zm5.8 0h2v2h-2z"/><path fill="#F16050" d="M46.2 24.5v-2.7h-2.5v-2.5H41v2.5h-2.5v2.7H41V27h2.7v-2.5z"/></svg>