<svg xmlns="http://www.w3.org/2000/svg" viewBox="0 0 64 64"><circle cx="32" cy="32" r="32" fill="#2BA1DB"/><path fill="#193651" d="M46.6 58.2h2v2h-2zm5.7 0h2v2h-2zm5.8 0h2v2h-2z"/><path fill="#FFF" d="M24.1 3.5c-.5-.2-1-.2-1.4-.1v3.9c3 1.6 4.9 4.7 4.9 8.2 0 5.3-7.5 5.9-7.5 13.8 0 2.1-1.7 3.8-3.8 3.8-2.1 0-3.8-1.7-3.8-3.8 0-7.9-7.5-8.5-7.5-13.8 0-3.3 1.8-6.4 4.7-8V3.4c-.4-.1-.8 0-1.2.2C4 5.8 1 10.4 1 15.5c0 3.1 1.8 6.3 5.3 9.1 1.4 1.1 2.2 2.7 2.2 4.7 0 4.3 3.5 7.8 7.8 7.8s7.8-3.5 7.8-7.8c0-1.9.8-3.5 2.2-4.7 3.5-2.9 5.3-6 5.3-9.1 0-5.1-2.9-9.7-7.5-12z"/><path fill="#193651" d="M16.3 38.1c-4.9 0-8.8-4-8.8-8.8 0-1.6-.6-2.9-1.8-3.9C2 22.4 0 18.9 0 15.5 0 10.1 3.2 5 8.1 2.7c.6-.3 1.2-.4 1.8-.3.5.1.8.5.8 1v4.1c0 .4-.2.7-.5.9C7.6 9.9 6 12.6 6 15.6c0 4.6 7.5 5.6 7.5 13.8 0 1.5 1.3 2.8 2.8 2.8 1.5 0 2.8-1.3 2.8-2.8 0-8.2 7.5-9.2 7.5-13.8 0-3-1.7-5.8-4.4-7.3-.3-.2-.5-.5-.5-.9v-4c0-1.2 1.8-1.3 2.9-.8 5 2.4 8.1 7.3 8.1 12.9 0 3.4-2 6.8-5.6 9.9-1.2 1-1.8 2.3-1.8 3.9-.1 4.9-4.1 8.8-9 8.8zM8.7 4.6C4.6 6.7 2 10.9 2 15.5c0 2.8 1.7 5.7 4.9 8.4 1.7 1.4 2.5 3.3 2.5 5.4 0 3.8 3.1 6.8 6.8 6.8 3.8 0 6.8-3.1 6.8-6.8 0-2.2.9-4 2.5-5.4 3.2-2.7 4.9-5.6 4.9-8.4 0-4.7-2.7-9-6.9-11.1v2.3c3 1.9 4.9 5.1 4.9 8.7 0 5.9-7.5 6.4-7.5 13.8 0 2.6-2.2 4.8-4.8 4.8-2.6 0-4.8-2.2-4.8-4.8 0-7.4-7.5-7.9-7.5-13.8 0-3.5 1.8-6.7 4.7-8.6V4.6z"/><path fill="#FDBE5E" d="M9.4 1c-1.1 0-2 .9-2 2v4.7c0 1.1.9 2 2 2s2-.9 2-2V3c0-1.1-.9-2-2-2z"/><path fill="#193651" d="M9.4 10.7c-1.7 0-3-1.4-3-3V3c0-1.7 1.4-3 3-3 1.7 0 3 1.4 3 3v4.7c0 1.7-1.4 3-3 3zm0-8.7c-.6 0-1 .5-1 1v4.7c0 .6.5 1 1 1 .6 0 1-.5 1-1V3c0-.5-.5-1-1-1z"/><path fill="#FDBE5E" d="M23.2 1c-1.1 0-2 .9-2 2v4.7c0 1.1.9 2 2 2s2-.9 2-2V3c0-1.1-.9-2-2-2z"/><path fill="#193651" d="M23.2 10.7c-1.7 0-3-1.4-3-3V3c0-1.7 1.4-3 3-3 1.7 0 3 1.4 3 3v4.7c0 1.7-1.3 3-3 3zm0-8.7c-.6 0-1 .5-1 1v4.7c0 .6.5 1 1 1s1-.5 1-1V3c0-.5-.4-1-1-1z"/><circle cx="42.9" cy="13.9" r="4.8" fill="#E1E6E9"/><path fill="#193651" d="M42.9 19.8c-3.2 0-5.8-2.6-5.8-5.8s2.6-5.8 5.8-5.8c3.2 0 5.8 2.6 5.8 5.8s-2.6 5.8-5.8 5.8zm0-9.7c-2.1 0-3.8 1.7-3.8 3.8 0 2.1 1.7 3.8 3.8 3.8 2.1 0 3.8-1.7 3.8-3.8 0-2.1-1.7-3.8-3.8-3.8zm-26.6 28c-4.9 0-8.8-4-8.8-8.8 0-1.6-.6-2.9-1.8-3.9C2 22.4 0 18.9 0 15.5c0-.6.4-1 1-1s1 .4 1 1c0 2.8 1.7 5.7 4.9 8.4 1.7 1.4 2.5 3.3 2.5 5.4 0 3.8 3.1 6.8 6.8 6.8 3.8 0 6.8-3.1 6.8-6.8 0-2.2.9-4 2.5-5.4 3.2-2.7 4.9-5.6 4.9-8.4 0-.6.4-1 1-1s1 .4 1 1c0 3.4-2 6.8-5.6 9.9-1.2 1-1.8 2.3-1.8 3.9.2 4.9-3.8 8.8-8.7 8.8z"/><path fill="#193651" d="M16.3 34.1c-2.6 0-4.8-2.2-4.8-4.8 0-7.4-7.5-7.9-7.5-13.8 0-.6.4-1 1-1s1 .4 1 1c0 4.6 7.5 5.6 7.5 13.8 0 1.5 1.3 2.8 2.8 2.8 1.5 0 2.8-1.3 2.8-2.8 0-8.2 7.5-9.2 7.5-13.8 0-.6.4-1 1-1s1 .4 1 1c0 5.9-7.5 6.4-7.5 13.8 0 2.7-2.1 4.8-4.8 4.8zm19.1 17H23.8c-4.7 0-8.5-3.8-8.5-8.5v-5.5c0-.6.4-1 1-1s1 .4 1 1v5.5c0 3.6 2.9 6.5 6.5 6.5h11.6c3.6 0 6.5-2.9 6.5-6.5V18.8c0-.6.4-1 1-1s1 .4 1 1v23.9c0 4.6-3.8 8.4-8.5 8.4z"/><path fill="#FFF" d="M60.7 21.3c-2.7-2.3-6.7-2-9.2.5L31 42.3c-1.5 1.5-2.6 3.5-3.1 5.6-1 3.9-3 5.3-7.3 9.6-1.3 1.3-1.3 3.3 0 4.6 1.3 1.3 3.3 1.3 4.6 0 4.3-4.3 5.7-6.3 9.8-7.3 2.1-.5 3.9-1.6 5.4-3.1L61.1 31c2.7-2.7 2.6-7.1-.4-9.7z"/><path fill="#183651" d="M19.9 62.8c-1.6-1.6-1.6-4.3 0-6 4.3-4.3 6.1-5.6 7-9.1.6-2.3 1.7-4.4 3.4-6.1l20.5-20.5c2.9-2.9 7.6-3.2 10.6-.5 3.4 3 3.4 8.1.4 11.2L41.1 52.4c-1.6 1.6-3.7 2.8-5.9 3.3-3.8.9-5 2.7-9.3 7-1.7 1.7-4.3 1.7-6 .1zm32.3-40.3L31.7 43c-1.4 1.4-2.3 3.1-2.8 5.1-1 4.2-3.2 5.8-7.5 10.1-.9.9-.9 2.3 0 3.1.9.9 2.3.9 3.1 0 4.3-4.3 5.9-6.5 10.2-7.6 1.9-.5 3.6-1.4 5-2.8l20.7-20.7c2.3-2.3 2.2-6.1-.3-8.2-2.2-1.9-5.7-1.7-7.9.5z"/><path fill="#F16050" d="M58.1 24.3c-1.1-.9-2.8-.7-3.8.3L37 42l3.7 3.7 17.5-17.5c1.1-1.1 1.1-2.9-.1-3.9z"/><path fill="#183651" d="m58.9 33.2-2.8-2.8c-.4-.4-.4-1 0-1.4.4-.4 1-.4 1.4 0l2.8 2.8c.4.4.4 1 0 1.4-.4.4-1 .4-1.4 0zM55.5 36.6l-2.8-2.8c-.4-.4-.4-1 0-1.4.4-.4 1-.4 1.4 0l2.8 2.8c.4.4.4 1 0 1.4-.4.4-1 .4-1.4 0zM52.1 40l-2.8-2.8c-.4-.4-.4-1 0-1.4.4-.4 1-.4 1.4 0l2.8 2.8c.4.4.4 1 0 1.4-.4.4-1.1.4-1.4 0zM48.6 43.4l-2.8-2.8c-.4-.4-.4-1 0-1.4.4-.4 1-.4 1.4 0L50 42c.4.4.4 1 0 1.4-.3.4-1 .4-1.4 0zM45.2 46.9 42.4 44c-.4-.4-.4-1 0-1.4.4-.4 1-.4 1.4 0l2.8 2.8c.4.4.4 1 0 1.4-.4.5-1 .5-1.4.1zM41.8 50.3 39 47.5c-.4-.4-.4-1 0-1.4.4-.4 1-.4 1.4 0l2.8 2.8c.4.4.4 1 0 1.4-.4.4-1 .4-1.4 0z"/><path fill="#E1E6E9" d="m24.8 53.3-4.2 4.2c-1.3 1.3-1.3 3.3 0 4.6 1.3 1.3 3.3 1.3 4.6 0l4.2-4.2"/><path fill="#183651" d="M19.9 62.8c-1.6-1.6-1.6-4.3 0-6l4.2-4.2.7.7.7-.7c1 1-.3 1.7-4.2 5.6-.9.9-.9 2.3 0 3.1.9.9 2.3.9 3.1 0l4.2-4.2c.4-.4.9-.5 1.4 0 .2.2.4.5.3.8 0 .2-.1.4-.3.6l-.8.8-3.4 3.4c-1.6 1.7-4.2 1.7-5.9.1z"/></svg>