<svg xmlns="http://www.w3.org/2000/svg" viewBox="0 0 64 64"><circle cx="32" cy="32" r="32" fill="#E1E6E9"/><path fill="#2BA1DB" d="M30.6 13.8v-3.7H11.5v3.7l-6.6 6.4C2.4 22.6 1 25.9 1 29.4v29.8C1 61.3 2.7 63 4.8 63h32.5c2.1 0 3.8-1.7 3.8-3.8V29.4c0-3.4-1.4-6.7-3.9-9.1l-6.6-6.5z"/><path fill="#193651" d="M37.3 64H4.8C2.2 64 0 61.8 0 59.2V29.4c0-3.7 1.5-7.3 4.2-9.9l6.3-6.1v-3.3c0-.6.4-1 1-1h19.1c.6 0 1 .4 1 1v3.3l6.3 6.1c2.6 2.6 4.2 6.2 4.2 9.9v29.8c0 2.6-2.2 4.8-4.8 4.8zM12.5 11.1v2.7c0 .3-.1.5-.3.7L5.6 21C3.3 23.2 2 26.2 2 29.4v29.8C2 60.7 3.3 62 4.8 62h32.5c1.5 0 2.8-1.3 2.8-2.8V29.4c0-3.2-1.3-6.2-3.6-8.4l-6.6-6.4c-.2-.2-.3-.4-.3-.7v-2.7H12.5z"/><path fill="#FFF" d="M30.4 19.2H11.7C7.9 22.9 5 24.9 5 29.4V59h32.1V29.4c0-4.5-2.8-6.5-6.7-10.2z"/><path fill="#E1E6E9" d="M9.7 1h22.7v9.1H9.7z"/><path fill="#193651" d="M32.4 11.1H9.7c-.6 0-1-.4-1-1V1c0-.6.4-1 1-1h22.7c.6 0 1 .4 1 1v9.1c0 .5-.5 1-1 1zm-21.7-2h20.7V2H10.7v7.1z"/><path fill="#193651" d="M14.3 4.5h2v2h-2zm5.8 0h2v2h-2zM25.8 4.5h2v2h-2z"/><path fill="#FFF" d="M23.4 29.1c-3.7 3.7-2.8 10.7 2.1 15.6s11.9 5.8 15.6 2.1l3.6-3.6L27 25.5l-3.6 3.6z"/><path fill="#193651" d="M24.7 45.4c-5.2-5.2-6.3-12.8-2.1-17l4.3-4.3L46 43.2l-4.3 4.3c-4.1 4.1-11.7 3.2-17-2.1zm-1.3-16.3.7.7c-3.4 3.4-2.4 9.8 2.1 14.2 4.5 4.5 10.9 5.4 14.2 2.1l2.9-2.9L27 26.9l-2.9 2.9-.7-.7z"/><path fill="#FDBE5E" d="M27 25.5c-3.7 3.7-2.8 10.7 2.1 15.6l13.6-13.6c-5-4.8-12-5.8-15.7-2z"/><path fill="#193651" d="m29 42.5-.7-.7c-5.3-5.3-6.2-12.9-2.1-17s11.8-3.2 17 2.1l.7.7L29 42.5zm-1.3-16.3c-3.2 3.2-2.5 9.1 1.4 13.5l12.1-12.1c-4.5-3.9-10.4-4.6-13.5-1.4z"/><path fill="#FFF" d="M42.6 27.5 29 41.1c4.9 4.9 11.9 5.8 15.6 2.1 3.8-3.8 2.9-10.8-2-15.7z"/><path fill="#193651" d="M38.7 46.4c-3.5 0-7.3-1.6-10.4-4.6l-.7-.7 15-15 .7.7c8 8.1 5.1 19.6-4.6 19.6zm-8.2-5.3c4.4 3.9 10.3 4.5 13.5 1.4 3.2-3.2 2.4-9.1-1.4-13.5L30.5 41.1z"/><path fill="#F16050" d="M35.5 46.6c-2.8 2.8-2.8 7.3 0 10.1s7.3 2.8 10.1 0l7.7-7.7-10.1-10-7.7 7.6z"/><path fill="#193651" d="M40.6 59.8c-2.1 0-4.2-.8-5.7-2.4-3.2-3.2-3.2-8.3 0-11.5l8.4-8.4L54.7 49l-8.4 8.4c-1.6 1.6-3.7 2.4-5.7 2.4zm2.6-19.4-7 7c-2.4 2.4-2.4 6.3 0 8.6 2.4 2.4 6.3 2.4 8.6 0l7-7-8.6-8.6z"/><path fill="#FFF" d="M60.9 41.4c2.8-2.8 2.8-7.3 0-10.1s-7.3-2.8-10.1 0L43.2 39l10.1 10 7.6-7.6z"/><path fill="#193651" d="M53.3 50.4 41.8 39l8.4-8.4c3.2-3.2 8.3-3.2 11.5 0 3.2 3.2 3.2 8.3 0 11.5l-8.4 8.3zM44.6 39l8.6 8.6 7-7c2.4-2.4 2.4-6.3 0-8.6-2.4-2.4-6.3-2.4-8.6 0l-7 7z"/></svg>