<svg xmlns="http://www.w3.org/2000/svg" viewBox="0 0 64 64"><circle cx="32" cy="32" r="32" fill="#2BA1DB"/><path fill="#FFF" d="M52.2 9.1H28.5L14.6 23v35.9c0 1.6 1.3 2.9 2.9 2.9h34.8c1.6 0 2.9-1.3 2.9-2.9v-47c-.1-1.5-1.4-2.8-3-2.8z"/><path fill="#183651" d="M52.2 62.7H17.5c-2.1 0-3.9-1.7-3.9-3.9V23c0-.3.1-.5.3-.7L27.8 8.4c.2-.2.4-.3.7-.3h23.7c2.1 0 3.9 1.7 3.9 3.9v47c0 2-1.7 3.7-3.9 3.7zM15.6 23.4v35.5c0 1 .8 1.9 1.9 1.9h34.8c1 0 1.9-.8 1.9-1.9v-47c0-1-.8-1.9-1.9-1.9H28.9L15.6 23.4z"/><path fill="#E1E6E9" d="M46.5 2.3H22.8L8.9 16.2v35.9c0 1.6 1.3 2.9 2.9 2.9h34.8c1.6 0 2.9-1.3 2.9-2.9v-47c-.1-1.6-1.4-2.8-3-2.8z"/><path fill="#183651" d="M46.5 55.9H11.8c-2.1 0-3.9-1.7-3.9-3.9V16.2c0-.3.1-.5.3-.7l13.9-14c.2-.2.4-.3.7-.3h23.7c2.1 0 3.9 1.7 3.9 3.9v47c0 2.1-1.7 3.8-3.9 3.8zM9.9 16.6v35.5c0 1 .8 1.9 1.9 1.9h34.8c1 0 1.9-.8 1.9-1.9v-47c0-1-.8-1.9-1.9-1.9H23.2L9.9 16.6z"/><path fill="#FFF" d="M12.9 50.9V17.8L24.5 6.3h20.9v44.6z"/><path fill="#FDBE5E" d="M8.9 16.2h11c1.6 0 2.9-1.3 2.9-2.9v-11L8.9 16.2z"/><path fill="#183651" d="M19.9 17.2h-11c-.9 0-1.3-1.1-.7-1.7l13.9-14c.3-.3.7-.4 1.1-.2.4.2.6.5.6.9v11c0 2.2-1.7 4-3.9 4zm-8.6-2h8.6c1 0 1.9-.8 1.9-1.9V4.7L11.3 15.2z"/><path fill="#F16050" d="M36.7 14.7v-2.2H34v2.2h-2.2v2.7H34v2.2h2.7v-2.2h2.2v-2.7z"/><path fill="#183651" d="M35.3 23.9c-4.3 0-7.9-3.5-7.9-7.9 0-4.3 3.5-7.9 7.9-7.9s7.9 3.5 7.9 7.9-3.5 7.9-7.9 7.9zm0-13.7c-3.2 0-5.9 2.6-5.9 5.9 0 3.2 2.6 5.9 5.9 5.9s5.9-2.6 5.9-5.9c0-3.3-2.6-5.9-5.9-5.9zm6.6 19.4H16.4c-.6 0-1-.4-1-1s.4-1 1-1H42c.6 0 1 .4 1 1-.1.6-.5 1-1.1 1zm0 6.3H16.4c-.6 0-1-.4-1-1s.4-1 1-1H42c.6 0 1 .4 1 1-.1.5-.5 1-1.1 1zm0 6.2H16.4c-.6 0-1-.4-1-1s.4-1 1-1H42c.6 0 1 .4 1 1-.1.5-.5 1-1.1 1zm-25.5 4.2h2v2h-2zm4.5 0h2v2h-2zM25.4 46.3h2v2h-2zM30 46.3h2v2h-2zM34.5 46.3h2v2h-2z"/></svg>